<svg width="76" height="79" viewBox="0 0 76 79" fill="none" xmlns="http://www.w3.org/2000/svg">
<path d="M5.07892 19.1637C-1.56263 29.4805 -0.735191 42.9033 4.33747 53.8664C4.45823 54.1294 4.58462 54.3877 4.70938 54.647C4.78885 54.8102 4.86388 54.9784 4.94661 55.1397C4.99308 55.2368 5.04562 55.3315 5.09431 55.4243C5.18104 55.5994 5.26924 55.7651 5.35922 55.936C5.51684 56.236 5.67859 56.5344 5.84346 56.8327C5.93492 56.9967 6.0252 57.1606 6.11947 57.3244C6.30239 57.6437 6.48975 57.9604 6.6817 58.2751C6.76162 58.4096 6.83931 58.5441 6.9213 58.674C7.18577 59.1008 7.45616 59.5268 7.73498 59.9447C7.74223 59.9551 7.75022 59.9665 7.75836 59.9769C7.80246 60.0446 7.85145 60.1105 7.896 60.1773C8.13708 60.5372 8.3863 60.892 8.63745 61.2441C8.73009 61.3718 8.82407 61.5 8.91716 61.6283C9.14152 61.9337 9.37017 62.2365 9.60252 62.539C9.68954 62.6518 9.77671 62.7653 9.86462 62.8763C10.1763 63.2729 10.4945 63.6683 10.8201 64.0561C10.8257 64.0631 10.8332 64.0709 10.8393 64.0778C10.8525 64.0943 10.8642 64.1047 10.8759 64.1204C11.1933 64.4951 11.5179 64.8621 11.847 65.2281C11.9488 65.3407 12.0533 65.4544 12.1579 65.5672C12.4128 65.8438 12.6716 66.1154 12.9331 66.3886C13.0394 66.4971 13.1446 66.6089 13.2501 66.7138C13.5996 67.0696 13.9524 67.4181 14.3123 67.7582C14.3187 67.7651 14.3231 67.7704 14.3292 67.7729C14.3901 67.8319 14.4535 67.8884 14.5137 67.943C14.8312 68.2403 15.1538 68.5353 15.4788 68.8251C15.6112 68.9405 15.7452 69.055 15.8785 69.1694C16.1442 69.3994 16.4125 69.6257 16.683 69.8486C16.8258 69.9665 16.9691 70.0845 17.1131 70.2026C17.4113 70.4385 17.7117 70.6733 18.0156 70.9016C18.1264 70.9883 18.2334 71.0715 18.3447 71.154C18.3752 71.1774 18.4033 71.2017 18.4345 71.2241C18.7227 71.4375 19.0167 71.6449 19.3108 71.8505C19.4372 71.9413 19.5628 72.0351 19.6904 72.1235C20.1418 72.4316 20.5997 72.7368 21.0626 73.0327C21.1887 73.1098 21.3154 73.1863 21.4418 73.2634C21.782 73.4758 22.1243 73.6841 22.4718 73.8879C22.6592 73.9972 22.8522 74.1003 23.0412 74.2045C23.2867 74.3441 23.5298 74.4846 23.7786 74.6181C23.8352 74.6493 23.8938 74.6789 23.9496 74.7075C24.049 74.7595 24.1501 74.8109 24.2509 74.8654C24.6368 75.0649 25.0261 75.26 25.4185 75.4499C25.5025 75.4897 25.5831 75.5297 25.6661 75.5688C26.116 75.7812 26.5698 75.9868 27.0289 76.1821C27.1388 76.2297 27.25 76.2756 27.3608 76.3235C27.785 76.4996 28.2148 76.6738 28.646 76.8379C28.7009 76.8587 28.7536 76.8777 28.8076 76.8976C29.2815 77.0772 29.7598 77.2428 30.2417 77.4051C30.3564 77.4416 30.472 77.4816 30.5875 77.5179C31.0779 77.6774 31.5618 77.8674 32.0682 77.9688C64.1861 84.2991 73.5157 57.107 73.5157 57.107C65.6806 68.1405 51.7718 71.0515 38.5939 67.8107C38.0943 67.6893 37.6103 67.521 37.1231 67.3649C36.9993 67.325 36.8781 67.2852 36.7561 67.2444C36.2806 67.0865 35.8091 66.921 35.3401 66.7466C35.2759 66.7223 35.2109 66.6964 35.1455 66.6709C34.7255 66.5115 34.3105 66.3432 33.8967 66.1704C33.7799 66.1202 33.6632 66.0725 33.5468 66.0221C33.0935 65.8288 32.6429 65.6266 32.1986 65.4159C32.1067 65.3741 32.0192 65.33 31.9294 65.2865C31.5471 65.1 31.169 64.9119 30.7915 64.7157C30.6832 64.6586 30.5739 64.6031 30.4632 64.5451C30.1678 64.3897 29.875 64.224 29.5837 64.0618C29.3883 63.9508 29.1897 63.8451 28.9968 63.7296C28.6404 63.5232 28.2905 63.3089 27.9426 63.0904C27.8242 63.0184 27.7051 62.9498 27.5862 62.876C27.1231 62.5812 26.6657 62.2759 26.2131 61.9662C26.0884 61.8804 25.966 61.7885 25.8428 61.7C25.5146 61.4709 25.1875 61.2385 24.8661 60.9973C24.7594 60.921 24.6559 60.836 24.5511 60.7588C24.2401 60.522 23.9328 60.281 23.6274 60.0372C23.4893 59.927 23.3525 59.8125 23.2182 59.7022C22.9385 59.4708 22.6601 59.2384 22.3848 58.9979C22.2608 58.8912 22.136 58.7837 22.0132 58.6761C21.6629 58.3648 21.317 58.0526 20.9752 57.7315C20.9395 57.6968 20.9006 57.6639 20.8616 57.6283C20.4924 57.2771 20.1289 56.917 19.7706 56.5553C19.6663 56.4478 19.5652 56.3437 19.4632 56.2353C19.1973 55.963 18.9361 55.6871 18.6793 55.4052C18.5766 55.2942 18.473 55.184 18.3719 55.0739C18.045 54.7113 17.7243 54.3453 17.4098 53.9732C17.3941 53.955 17.3777 53.9385 17.3625 53.9185C17.0298 53.5255 16.7048 53.124 16.3866 52.718C16.3003 52.607 16.2165 52.4995 16.131 52.3901C15.8939 52.0812 15.6588 51.768 15.4292 51.4516C15.3425 51.3388 15.2564 51.2216 15.1711 51.1055C14.8951 50.7177 14.6247 50.3319 14.3598 49.9379C7.0431 39.1529 4.41457 24.2752 10.262 12.0571" fill="#F3F2F0"/>
<path d="M25.6947 10.4715C20.8917 17.9424 21.1526 27.9416 24.8991 35.8429C25.5275 37.1673 26.2337 38.452 27.0237 39.6758C27.7431 40.7905 28.5405 42.1167 29.4954 43.0117C29.8421 43.4237 30.2037 43.8262 30.5732 44.221C30.6668 44.3251 30.7622 44.4232 30.8577 44.5254C31.216 44.9002 31.5811 45.2705 31.9583 45.6296C31.9739 45.6435 31.9876 45.6598 32.0033 45.6712C32.0073 45.6763 32.0113 45.6782 32.0137 45.6833C32.431 46.0781 32.8618 46.4588 33.2996 46.8327C33.3967 46.9125 33.493 46.9966 33.5913 47.079C34.0298 47.4424 34.4773 47.8007 34.9363 48.1408C34.9499 48.151 34.9616 48.1616 34.9752 48.1738C35.1775 48.3238 35.3841 48.4651 35.5888 48.6101C35.6875 48.6796 35.781 48.7533 35.8802 48.8182C36.2075 49.0448 36.5395 49.266 36.8769 49.4784C36.9246 49.5106 36.9716 49.5365 37.0178 49.5661C37.3086 49.7473 37.6036 49.926 37.8994 50.0986C38.0026 50.1619 38.1076 50.2165 38.2129 50.2755C38.4171 50.391 38.6213 50.5079 38.8295 50.6207C38.8596 50.6364 38.8921 50.6519 38.9222 50.6658C39.3455 50.8912 39.7729 51.1082 40.2086 51.3128C40.3014 51.357 40.3975 51.3968 40.4927 51.4394C40.8406 51.599 41.1929 51.7553 41.546 51.9018C41.6961 51.9634 41.8477 52.0215 41.9978 52.0815C42.3184 52.2099 42.6411 52.3276 42.9657 52.4457C43.1125 52.4959 43.2565 52.5481 43.4035 52.5965C43.8652 52.7509 44.3215 52.9468 44.8029 53.0335C69.6008 57.4747 75.3263 36.8375 75.3263 36.8375C70.165 44.8695 60.1709 48.7044 49.506 45.7118C49.0326 45.5774 48.5658 45.4308 48.1021 45.2729C47.9601 45.2262 47.8205 45.1758 47.6799 45.1254C47.35 45.0101 47.0222 44.887 46.6972 44.7596C46.5483 44.7013 46.3998 44.6425 46.2538 44.5817C45.8975 44.4334 45.5455 44.2806 45.1964 44.1202C45.1013 44.076 45.0046 44.0369 44.9115 43.9901C44.4738 43.7846 44.0428 43.5669 43.6175 43.3413C43.3987 43.2249 43.1841 43.1028 42.9691 42.984C42.8446 42.9138 42.7194 42.8443 42.5947 42.7749C42.3182 42.6126 42.0441 42.4452 41.7733 42.2744C41.7095 42.2346 41.6425 42.1973 41.5775 42.1546C41.2414 41.9422 40.9106 41.7237 40.5831 41.4989C40.482 41.4287 40.385 41.3532 40.2839 41.282C40.0677 41.1304 39.8517 40.9768 39.6398 40.8215C39.1828 40.4816 38.7378 40.1242 38.2996 39.7616C38.1985 39.6757 38.097 39.5915 37.9978 39.5056C33.3292 35.5217 29.6298 30.0771 27.8706 23.9047C26.0268 17.5016 26.4238 10.316 29.6181 4.48364" fill="#F3F2F0"/>
<path d="M43.0334 3.9774C40.2021 8.48094 39.924 14.074 41.8887 19.0484C43.9603 24.3283 48.2057 28.4701 53.1611 30.433C53.3653 30.5154 53.5691 30.5891 53.7766 30.6646C53.8668 30.695 53.9563 30.728 54.0477 30.7566C54.3396 30.8563 54.6297 30.9718 54.9314 31.0332C68.6239 33.893 72.3378 23.4382 73.3266 21.8994C70.0728 26.9623 64.606 28.1777 57.8975 26.4186C57.3674 26.278 56.7848 26.0717 56.2743 25.8756C55.6195 25.624 54.9743 25.336 54.3468 25.0108C53.1559 24.3923 52.0207 23.6412 50.9674 22.7824C44.965 17.8591 41.2354 8.46782 45.1525 0.81897" fill="#F3F2F0"/>
</svg>
