<svg width="69" height="84" viewBox="0 0 69 84" fill="none" xmlns="http://www.w3.org/2000/svg">
<path d="M1.75063 0C1.04289 0 0.515617 0.629183 0.578481 1.39798L6.54466 74.4026C6.60753 75.1716 7.21661 75.9697 7.89879 76.1763L33.2163 83.845C33.8983 84.0515 35.0141 84.0515 35.6963 83.8454L61.0908 76.1642C61.7728 75.9578 62.3826 75.1598 62.4453 74.391L68.4214 1.39798C68.4848 0.629183 67.9569 0 67.2491 0H1.75063ZM55.7156 16.7433C55.6592 17.4291 55.5618 18.6197 55.4989 19.3887L55.3417 21.3041C55.2784 22.0728 55.1883 23.1722 55.1408 23.7469C55.0935 24.3218 55.0485 24.7921 55.0402 24.7921C55.0322 24.7921 54.4465 24.7921 53.7389 24.7921H35.7866C35.0789 24.7921 34.494 24.7921 34.4864 24.7921C34.4787 24.7921 33.8932 24.7921 33.1855 24.7921H23.7307C23.0229 24.7921 22.4956 25.4213 22.5585 26.1901L23.11 32.9151C23.1729 33.6837 23.8036 34.3131 24.5112 34.3131H33.1856C33.8934 34.3131 34.4787 34.3131 34.4865 34.3131C34.4943 34.3131 35.0792 34.3131 35.7868 34.3131H50.6969C51.4046 34.3131 52.4998 34.3131 53.1305 34.3131C53.7608 34.3131 54.2302 34.8743 54.1731 35.5601C54.1156 36.2459 54.0175 37.4368 53.9548 38.2055L52.1816 59.8864C52.1183 60.6554 52.0382 61.6377 52.0038 62.0695C51.9686 62.501 51.3821 63.0228 50.7001 63.2292L35.74 67.7544C35.058 67.9605 34.4915 68.1311 34.4808 68.1338C34.4703 68.1362 33.9039 67.9692 33.2216 67.763L18.2456 63.2296C17.5635 63.0232 16.9542 62.2252 16.8914 61.4562L15.9274 49.6527C15.8646 48.8837 16.3925 48.2545 17.1002 48.2545H18.467C19.1747 48.2545 20.3327 48.2545 21.0403 48.2545H23.0784C23.7861 48.2545 24.4163 48.8837 24.4796 49.6527L24.8577 54.2733C24.9206 55.0423 25.5307 55.8359 26.2141 56.0372L33.2192 58.1009C33.9021 58.3022 34.4636 58.467 34.4668 58.467C34.47 58.467 35.0312 58.3019 35.7145 58.1006L42.7322 56.0319C43.4151 55.8306 44.0258 55.0367 44.0892 54.2681L44.8501 45.0105C44.9134 44.2415 44.3862 43.6123 43.6784 43.6123H35.7868C35.079 43.6123 34.4942 43.6123 34.4865 43.6123C34.4788 43.6123 33.8934 43.6123 33.1856 43.6123H16.7186C16.0109 43.6123 15.3808 42.983 15.3179 42.2143L13.4506 19.3889C13.3878 18.6199 13.2903 17.4296 13.2339 16.7435C13.1781 16.0577 13.711 15.4964 14.4187 15.4964H33.1856C33.8934 15.4964 34.4787 15.4964 34.4865 15.4964C34.4943 15.4964 35.0792 15.4964 35.7868 15.4964H54.531C55.2386 15.4961 55.7717 16.0572 55.7156 16.7433Z" fill="#DD512A"/>
</svg>
